<?xml version="1.0" encoding="UTF-8" standalone="no"?>
<!DOCTYPE svg PUBLIC "-//W3C//DTD SVG 1.1//EN" "http://www.w3.org/Graphics/SVG/1.1/DTD/svg11.dtd">
<svg width="100%" height="100%" viewBox="0 0 96 242" version="1.1" xmlns="http://www.w3.org/2000/svg" xmlns:xlink="http://www.w3.org/1999/xlink" xml:space="preserve" xmlns:serif="http://www.serif.com/" style="fill-rule:evenodd;clip-rule:evenodd;stroke-linecap:round;stroke-linejoin:round;stroke-miterlimit:1.5;">
    <path d="M40.745,87.353L28.682,99.42C25.493,102.884 22.282,106.277 19.493,109.725C17.287,112.453 15.376,115.24 13.853,118.08C12.231,121.143 10.794,124.686 9.762,128.339C8.697,132.105 8.109,135.989 8.041,139.562C8.033,143.072 8.364,146.979 9.107,150.752C9.91,154.833 11.167,158.759 12.854,161.946C14.563,165.162 16.818,168.11 19.479,170.665C22.044,173.129 24.95,175.26 28.033,176.943C31.004,178.558 34.393,180.083 37.922,181.172C41.628,182.316 45.469,183.021 49.144,182.967C52.653,182.915 56.673,182.171 60.503,180.973C60.796,182.615 61.042,184.097 61.233,185.355C62.006,190.445 62.842,196.369 63.249,201.766C63.558,205.854 63.638,209.627 63.223,212.457C62.903,214.646 62.042,216.898 60.816,218.891C59.557,220.936 57.938,222.726 56.12,223.878C54.308,225.027 51.639,225.859 48.934,226.287C46.134,226.73 43.295,226.764 41.311,226.202C40.043,225.843 38.71,224.707 37.475,223.406C35.436,221.26 33.693,218.634 33.022,217.576C33.021,217.575 38.484,209.237 38.484,209.237C38.706,208.913 38.623,208.469 38.298,208.247C37.974,208.025 37.53,208.108 37.308,208.432L31.155,217.038C30.954,217.331 30.938,217.714 31.115,218.023C31.115,218.023 33.213,221.859 35.858,224.881C37.346,226.58 39.032,227.989 40.607,228.506C42.848,229.24 46.089,229.381 49.308,229.005C52.455,228.638 55.566,227.755 57.716,226.512C59.973,225.206 62.041,223.14 63.666,220.726C65.246,218.38 66.38,215.696 66.875,213.068C67.446,210.033 67.552,205.961 67.399,201.538C67.208,196.02 66.605,189.947 66.029,184.726C65.866,183.182 65.627,181.309 65.334,179.215C67.434,178.34 69.357,177.379 70.95,176.41C73.562,174.823 76,172.759 78.008,170.338C80.041,167.887 81.68,165.116 82.692,162.192C83.679,159.329 84.34,155.503 84.522,151.658C84.705,147.802 84.464,143.942 83.777,141.066C83.1,138.231 81.74,135.452 79.949,132.987C78.244,130.64 76.21,128.55 74.205,126.942C72.182,125.325 69.786,123.956 67.249,122.983C64.697,122.004 62.032,121.371 59.534,121.204C58.539,121.137 57.49,121.161 56.415,121.263C55.214,113.258 53.797,104.067 52.486,96.138C52.145,94.077 51.809,92.101 51.487,90.254L54.357,87.006L60.553,79.413L65.18,72.616C66.47,70.64 67.448,68.807 68.184,67.218C69.813,63.699 70.32,61.307 70.371,61.051C70.467,60.621 70.94,58.404 71.526,54.02C71.877,51.402 72.283,47.982 72.66,43.661C72.909,40.862 72.51,38.126 71.891,35.76C70.798,31.581 68.976,28.6 68.976,28.6C68.927,28.52 68.874,28.441 68.82,28.364L63.637,20.916C62.413,19.198 60.131,18.609 58.227,19.519C58.227,19.519 55.386,20.847 52.834,22.493C51.306,23.478 49.905,24.609 49.012,25.64C47.34,27.572 45.424,29.493 43.643,32.312C42.272,34.483 40.996,37.162 39.981,40.726C39.22,43.4 38.718,46.001 38.38,48.275C37.707,52.802 37.715,56.046 37.715,56.046C37.716,56.152 37.72,56.257 37.728,56.362L39.142,78.176C39.155,78.35 39.178,78.524 39.209,78.696C39.209,78.696 39.782,82.112 40.745,87.353ZM43.117,99.724L37.016,106.627C34.204,110.09 31.37,113.488 28.925,116.905C27.341,119.118 25.956,121.343 24.9,123.609C23.764,126.016 22.842,128.799 22.138,131.627C21.46,134.353 21.018,137.134 21.013,139.699C20.961,142.427 21.181,145.466 21.697,148.41C22.192,151.234 22.916,153.983 24.024,156.208C25.062,158.301 26.466,160.223 28.126,161.908C29.863,163.672 31.845,165.21 33.957,166.441C36.237,167.774 38.843,169.053 41.57,169.992C44.07,170.852 46.659,171.477 49.164,171.523C51.705,171.569 54.629,171.072 57.428,170.293L58.361,170.02C55.647,157.068 52.18,142.587 52.18,142.587C52.176,142.564 52.171,142.541 52.167,142.517C52.167,142.517 51.121,137.779 49.635,130.881C48.959,131.103 48.332,131.327 47.774,131.536C46.758,131.86 45.762,132.284 44.853,132.878C43.89,133.507 42.962,134.185 42.19,135.012C41.346,135.916 40.482,137.097 39.754,138.361C38.959,139.744 38.26,141.144 37.837,142.307C37.517,143.188 37.306,144.113 37.238,145.065C37.163,146.111 37.176,147.155 37.278,148.16C37.382,149.181 37.529,150.229 37.814,151.25C38.091,152.243 38.444,153.203 38.985,154.06C39.53,154.923 40.594,156.217 41.764,157.541C43.967,160.035 46.457,162.582 46.457,162.582L46.92,162.04C47.219,162.296 47.254,162.746 46.999,163.045C46.743,163.344 46.293,163.379 46.457,162.582C46.457,162.582 43.543,160.505 40.921,158.431C39.447,157.264 38.095,156.101 37.362,155.298C36.528,154.387 35.888,153.316 35.341,152.185C34.807,151.078 34.419,149.915 34.092,148.772C33.691,147.371 33.425,145.874 33.333,144.364C33.267,143.282 33.352,142.215 33.533,141.164C33.783,139.712 34.296,137.921 34.937,136.132C35.587,134.323 36.446,132.595 37.331,131.225C38.234,129.826 39.364,128.566 40.612,127.421C41.906,126.232 43.399,125.306 44.948,124.54C45.837,124.155 46.879,123.734 48.015,123.326C46.428,115.886 44.637,107.342 43.117,99.724ZM57.612,129.292C58.653,136.331 59.344,141.174 59.338,141.144C59.338,141.144 61.081,151.673 62.853,162.864L63.665,168.037C64.323,167.735 64.939,167.422 65.503,167.104C67.162,166.17 68.719,164.932 70.023,163.469C71.31,162.026 72.402,160.405 73.085,158.656C73.895,156.589 74.446,153.796 74.697,150.986C74.954,148.119 74.956,145.234 74.534,143.07C74.203,141.374 73.423,139.713 72.425,138.207C71.281,136.48 69.903,134.92 68.524,133.708C67.228,132.566 65.669,131.584 64.01,130.853C62.293,130.098 60.495,129.554 58.788,129.356C58.408,129.312 58.015,129.291 57.612,129.292ZM49.369,78.555L53.718,73.821L58.188,67.823C59.288,66.292 60.149,64.873 60.782,63.626C62.067,61.098 62.467,59.417 62.467,59.417C62.476,59.372 62.486,59.328 62.496,59.284C62.496,59.284 63.077,56.872 63.713,51.33C63.972,49.07 64.224,46.309 64.464,43.003C64.593,41.205 64.277,39.458 63.85,37.949C63.162,35.516 62.132,33.682 61.833,33.176C61.833,33.176 58.854,29.093 58.854,29.093C58.69,29.194 58.525,29.297 58.36,29.402C57.381,30.024 56.359,30.709 55.801,31.384C54.43,33.042 52.811,34.663 51.366,37.069C50.42,38.644 49.573,40.59 48.905,43.157C48.314,45.426 47.944,47.63 47.703,49.553C47.306,52.712 47.282,55.108 47.284,55.784C47.284,55.784 49.095,77.114 49.094,77.11L49.369,78.555Z"/>
    <g transform="matrix(0.546391,0,0,0.494093,19.7976,114.752)">
        <ellipse cx="31.897" cy="193.345" rx="7.775" ry="8.596" style="fill:rgb(29,14,14);stroke:black;stroke-width:24.96px;"/>
    </g>
    <g id="Layer1">
    </g>
</svg>
