<?xml version="1.0" encoding="UTF-8" standalone="no"?>
<!DOCTYPE svg PUBLIC "-//W3C//DTD SVG 1.1//EN" "http://www.w3.org/Graphics/SVG/1.1/DTD/svg11.dtd">
<svg width="100%" height="100%" viewBox="0 0 420 494" version="1.1" xmlns="http://www.w3.org/2000/svg" xmlns:xlink="http://www.w3.org/1999/xlink" xml:space="preserve" xmlns:serif="http://www.serif.com/" style="fill-rule:evenodd;clip-rule:evenodd;stroke-linecap:round;stroke-linejoin:round;stroke-miterlimit:1.5;">
    <path d="M75.781,168.104C75.781,168.104 71.783,160.237 68.939,152.017C67.634,148.243 66.713,144.5 66.568,141.508C66.315,136.26 66.908,130.142 68.01,123.815C69.018,118.025 70.753,112.416 72.851,107.399C74.921,102.386 77.909,97.701 81.156,93.042C84.27,88.573 87.979,84.681 91.846,81.112C95.642,77.608 100.222,74.909 104.96,72.215C109.769,69.48 114.915,67.519 120.012,65.64C126.321,63.316 133.781,61.146 141.573,59.225C148,57.641 154.578,56.997 160.712,56.958C167.085,56.841 173.682,57.64 180.229,58.819C185.254,59.723 189.817,61.927 194.14,64.413C200.008,67.67 206.046,72.836 211.977,78.387C216.913,83.005 220.963,88.587 224.092,94.193C228.276,101.402 231.105,111.082 233.938,120.876C236.945,131.269 239.143,142.014 240.297,151.288C241.517,159.095 241.304,167.164 240.83,175.177C240.253,184.936 239.262,194.643 237.948,203.844C236.95,212.526 235.647,221.297 233.629,229.896C231.649,238.335 229.554,246.655 226.453,254.434C223.502,262.104 220.002,269.476 215.808,276.583C211,284.731 205.975,292.662 200.77,300.502L166.435,345.805L125.114,391.589L40.577,467.51L142.099,414.031C151.621,408.464 160.766,402.41 169.864,396.012C178.952,389.621 187.509,382.937 195.948,376.371C205.8,368.667 215.389,360.848 224.735,352.513C231.204,346.744 237.218,340.669 243.189,334.459C252.027,325.234 260.729,315.879 268.732,305.854C274.689,298.393 279.759,290.408 284.497,282.149C290.227,271.944 294.937,260.918 299.12,249.549C303.148,238.604 306.123,227.27 308.714,216.025C311.463,202.244 314.118,187.544 314.829,172.783C315.364,161.684 314.697,150.576 312.914,139.783C310.451,127.011 306.686,112.183 301.244,98.143C295.301,82.813 288.054,68.272 280.074,57.455C272.21,47.165 262.433,37.246 251.183,29.541C240.067,21.928 228.531,15.566 218.061,11.784C209.325,8.772 200.321,6.441 190.898,6.079C178.752,5.612 166.471,6.55 155.06,9.062C147.415,10.823 139.438,13.146 131.763,16.74C121.271,21.654 111.297,27.445 103.253,32.855C97.207,36.921 91.197,41.206 85.798,46.297C80.15,51.624 74.882,57.049 70.809,63.179C66.876,69.097 63.239,75.395 60.661,82.287C58.127,89.061 56.152,95.861 55.262,102.712C54.447,109.215 54.232,116.286 54.931,123.334C55.646,130.533 56.872,137.346 58.731,142.965C59.839,146.315 61.995,150.31 64.669,154.18C69.709,161.472 75.781,168.104 75.781,168.104Z"/>
    <g transform="matrix(2.17895,0,0,2.77953,-422.25,-162.694)">
        <ellipse cx="363.49" cy="96.456" rx="10.453" ry="7.983" style="stroke:black;stroke-width:8.81px;"/>
    </g>
    <g transform="matrix(2.17895,0,0,2.77953,-422.25,-43.2592)">
        <ellipse cx="363.49" cy="96.456" rx="10.453" ry="7.983" style="stroke:black;stroke-width:8.81px;"/>
    </g>
    <g transform="matrix(4.36311,0,0,4.24386,-1483.2,-253.402)">
        <ellipse cx="363.49" cy="96.456" rx="10.453" ry="7.983" style="stroke:black;stroke-width:5.11px;"/>
    </g>
    <path d="M57.863,159.878C57.863,159.878 53.523,148.414 53.46,135.633C53.416,126.744 57.097,117.028 58.831,110.882C60.473,105.062 63.031,96.03 67.368,89.07C74.196,78.111 83.232,69.979 83.232,69.979" style="fill:none;stroke:black;stroke-width:22px;"/>
    <g transform="matrix(0.917214,0,0,1,7.95177,0)">
        <path d="M96.052,120.064C96.052,120.064 103.143,125.131 82.376,117.481C77.363,115.634 71.157,108.254 69.509,103.002C67.862,97.75 70.17,91.194 72.491,85.968C74.812,80.741 83.434,71.641 83.434,71.641" style="fill:none;stroke:black;stroke-width:19.8px;"/>
    </g>
    <path d="M65.666,107.135L74.959,129.308" style="fill:none;stroke:black;stroke-width:19px;"/>
</svg>
